<svg xmlns="http://www.w3.org/2000/svg" width="61" height="63" viewBox="0 0 61 63">
    <defs>
        <filter id="prefix__a" width="114.4%" height="171.1%" x="-7.2%" y="-35.5%" filterUnits="objectBoundingBox">
            <feOffset dy="2" in="SourceAlpha" result="shadowOffsetOuter1"/>
            <feGaussianBlur in="shadowOffsetOuter1" result="shadowBlurOuter1" stdDeviation="6"/>
            <feColorMatrix in="shadowBlurOuter1" result="shadowMatrixOuter1" values="0 0 0 0 0 0 0 0 0 0 0 0 0 0 0 0 0 0 0.07 0"/>
            <feMerge>
                <feMergeNode in="shadowMatrixOuter1"/>
                <feMergeNode in="SourceGraphic"/>
            </feMerge>
        </filter>
    </defs>
    <g fill="#78909C" filter="url(#prefix__a)" transform="translate(-308 12)">
        <path d="M336.798 8.5c-.525 0-.973.372-1.073.89l-.366 1.886c-.898.341-1.729.818-2.458 1.42l-1.8-.623c-.496-.172-1.041.034-1.304.49l-1.65 2.874c-.262.457-.167 1.036.228 1.382l1.443 1.26c-.075.464-.124.936-.124 1.421s.05.957.124 1.42l-1.443 1.261c-.395.346-.49.925-.228 1.382l1.65 2.874c.262.457.808.663 1.304.492l1.8-.623c.729.602 1.56 1.077 2.458 1.418l.366 1.887c.1.517.548.889 1.073.889h3.304c.525 0 .973-.372 1.073-.89l.366-1.886c.898-.341 1.729-.818 2.458-1.42l1.8.623c.496.172 1.041-.033 1.304-.49l1.65-2.876c.262-.457.167-1.034-.228-1.38l-1.443-1.26c.075-.464.124-.936.124-1.421s-.05-.957-.124-1.42l1.443-1.261c.395-.346.49-.925.228-1.382l-1.65-2.874c-.262-.457-.808-.663-1.304-.492l-1.8.623c-.729-.602-1.56-1.077-2.458-1.418l-.366-1.887c-.1-.517-.548-.889-1.073-.889h-3.304zm1.652 6.6c2.418 0 4.378 1.97 4.378 4.4 0 2.43-1.96 4.4-4.378 4.4s-4.378-1.97-4.378-4.4c0-2.43 1.96-4.4 4.378-4.4z"/>
    </g>
</svg>
